<?xml version="1.0" encoding="UTF-8" standalone="no"?>
<!-- Created with Inkscape (http://www.inkscape.org/) -->

<svg
   width="89.100586mm"
   height="61.827934mm"
   viewBox="0 0 89.100586 61.827934"
   version="1.1"
   id="svg1"
   inkscape:export-filename="logo-katty.svg"
   inkscape:export-xdpi="96"
   inkscape:export-ydpi="96"
   inkscape:version="1.4.3 (0d15f75, 2025-12-25)"
   xmlns:inkscape="http://www.inkscape.org/namespaces/inkscape"
   xmlns:sodipodi="http://sodipodi.sourceforge.net/DTD/sodipodi-0.dtd"
   xmlns="http://www.w3.org/2000/svg"
   xmlns:svg="http://www.w3.org/2000/svg">
  <sodipodi:namedview
     id="namedview1"
     pagecolor="#ffffff"
     bordercolor="#000000"
     borderopacity="0.25"
     inkscape:showpageshadow="2"
     inkscape:pageopacity="0.0"
     inkscape:pagecheckerboard="0"
     inkscape:deskcolor="#d1d1d1"
     inkscape:document-units="mm">
    <inkscape:page
       x="0"
       y="0"
       width="89.100586"
       height="61.827934"
       id="page2"
       margin="0"
       bleed="0" />
  </sodipodi:namedview>
  <defs
     id="defs1" />
  <g
     inkscape:label="Capa 1"
     inkscape:groupmode="layer"
     id="layer1"
     transform="translate(-0.56455004,-3.6041085)">
    <path
       style="fill:#000000;stroke-width:0.525253"
       d="m 31.055898,65.310661 c -0.863075,-0.0783 -0.973686,-0.12171 -1.012514,-0.39696 -0.06269,-0.44438 0.179928,-0.47289 3.642464,-0.42807 l 3.045198,0.0394 0.04379,0.38371 0.04379,0.3837 h -1.580698 c -0.869385,0 -1.947995,0.0239 -2.39691,0.0531 -0.448914,0.0292 -1.252224,0.0135 -1.785136,-0.0349 z m 9.976275,-0.0976 c -0.163983,-0.1653 -0.182178,-0.28503 -0.07422,-0.48836 0.138626,-0.26111 0.375646,-0.26937 7.729689,-0.26937 7.187527,0 7.598795,0.0135 7.816883,0.25641 0.215116,0.23961 0.213536,0.27162 -0.02407,0.48836 -0.230439,0.21022 -0.955564,0.23194 -7.742657,0.23194 -6.619067,0 -7.513621,-0.0254 -7.705639,-0.21898 z M 7.2593772,64.411221 c -0.137024,-0.101 -0.22594,-0.30506 -0.197595,-0.45347 0.05028,-0.26317 0.279171,-0.27061 9.2544668,-0.30088 8.098741,-0.0273 9.236139,-0.005 9.479762,0.18346 0.274782,0.21291 0.27441,0.2165 -0.04996,0.48451 -0.315651,0.26082 -0.631652,0.27002 -9.282166,0.27002 -7.1857118,0 -9.0046238,-0.0363 -9.2045258,-0.18364 z m 65.2819108,-0.12187 c -0.230304,-0.23215 -0.210147,-0.39855 0.07468,-0.6165 0.192045,-0.14696 1.403772,-0.18589 5.848171,-0.18789 3.083263,-0.002 5.749436,0.0362 5.924823,0.0836 0.246271,0.0665 0.309316,0.16933 0.276839,0.45157 l -0.04206,0.36547 -5.957458,0.0363 c -4.518216,0.0276 -5.997929,-0.004 -6.125004,-0.13255 z m -45.000491,-1.42094 c -0.222132,-0.2698 -0.04123,-0.6453 0.31169,-0.64702 0.163146,-10e-4 8.886794,-1.5e-4 19.385884,0.002 14.01326,0.002 19.139508,0.0449 19.278233,0.16099 0.158166,0.13232 0.151056,0.20033 -0.04358,0.41715 -0.224465,0.25002 -0.904446,0.25906 -19.503514,0.25906 -16.170341,0 -19.296319,-0.0309 -19.428693,-0.19162 z M 6.0924012,62.663691 c -0.102654,-0.069 -0.164161,-0.24352 -0.13669,-0.3878 0.04567,-0.23974 0.218046,-0.26567 2.000682,-0.30094 1.534802,-0.0304 1.984872,0.003 2.1108588,0.1559 0.319036,0.38751 -0.1806458,0.53551 -2.0192698,0.5981 -0.972917,0.0331 -1.852928,0.004 -1.955581,-0.0653 z m 75.2328798,-0.0888 c -0.165223,-0.083 -0.300406,-0.24329 -0.300406,-0.35614 0,-0.31448 2.307764,-0.37291 2.561389,-0.0648 0.107472,0.13053 0.130198,0.26882 0.05577,0.33931 -0.197235,0.1868 -1.982351,0.24974 -2.316752,0.0817 z m -8.903492,-0.21007 c -0.316159,-0.048 -0.828323,-0.20257 -1.138146,-0.34341 -0.53286,-0.24221 -0.607048,-0.24369 -1.372106,-0.0273 -1.45218,0.41073 -2.29425,0.26734 -3.602798,-0.61349 l -0.82567,-0.5558 -20.466414,0.0362 -20.466408,0.0362 -0.553676,0.44794 c -1.054828,0.85339 -2.269767,1.07397 -3.64609,0.66196 -0.684763,-0.20499 -0.761228,-0.20061 -1.547844,0.0885 -1.454142,0.53446 -3.059285,0.24072 -4.262768,-0.78007 l -0.427282,-0.36243 -5.0601358,-0.0851 c -4.1848668,-0.0704 -5.0890468,-0.12025 -5.2272588,-0.28812 -0.135267,-0.1643 -0.102978,-0.25534 0.169424,-0.47768 0.314134,-0.25642 0.51885,-0.27161 3.0753788,-0.22819 1.506363,0.0256 2.738818,0.0128 2.738781,-0.0285 -3.6e-5,-0.0413 -0.179913,-0.29219 -0.399716,-0.5576 l -0.399655,-0.48256 -3.625932,-0.0703 c -3.3853329,-0.0656 -3.6389532,-0.0883 -3.8221046,-0.34113 -0.302614,-0.4178 -0.2441253,-1.10016 0.1241918,-1.44896 0.3072228,-0.29094 0.435715,-0.30339 3.132633,-0.30339 h 2.8122738 l -0.0887,-0.593 c -0.239458,-1.60092 -0.248321,-2.45389 -0.0372,-3.57764 0.272553,-1.45061 0.784634,-2.56766 1.79707,-3.920087 0.430029,-0.57444 0.7544888,-1.13954 0.7210228,-1.25577 -0.4714728,-1.63755 -0.4402038,-6.614139 0.05736,-9.129829 0.345785,-1.748288 1.057993,-4.191772 1.742667,-5.978878 l 0.4723,-1.232767 -0.753867,-2.260201 C 10.206692,24.692652 9.7410992,21.575206 9.7552452,16.735847 9.7705752,11.484155 10.540334,7.445471 12.014607,4.881295 c 0.992462,-1.726173 3.70766,-1.702596 8.144167,0.07072 3.50206,1.399805 8.406872,4.320303 10.343436,6.158846 0.47571,0.45163 0.951217,0.741416 1.216582,0.741416 0.140394,0 0.951855,-0.308759 1.803243,-0.686131 1.452353,-0.643748 3.41315,-1.327704 6.206266,-2.164842 1.316212,-0.394486 2.496047,-0.971541 3.302005,-1.615 0.287683,-0.229679 0.620907,-0.417598 0.7405,-0.417598 0.274369,0 0.503453,0.422332 0.505912,0.932659 0.0052,1.037161 -0.04829,1.012049 2.146308,1.012049 3.539763,0 5.662681,0.46054 9.748053,2.114722 2.365317,0.957726 2.420829,0.972555 2.719545,0.726499 5.840507,-4.810869 11.682394,-7.746048 16.072814,-8.075577 2.067175,-0.155155 2.893588,0.255757 3.616568,1.798243 1.342615,2.864486 2.114384,8.532836 1.823615,13.39378 -0.264947,4.429279 -0.798111,7.209995 -2.031392,10.594738 -0.279155,0.766143 -0.464164,1.49604 -0.424415,1.674367 0.03877,0.173881 0.333004,1.004457 0.653876,1.845733 0.69711,1.827723 1.445934,4.673784 1.730567,6.57741 0.237507,1.588423 0.272323,5.015745 0.0641,6.309265 -0.249012,1.54684 -0.222524,1.75094 0.313569,2.41658 1.908476,2.369627 2.537544,5.142447 1.820251,8.023337 l -0.08194,0.32908 h 2.858872 c 2.850783,0 2.859829,0.001 3.198624,0.34249 0.423343,0.42675 0.433518,0.92889 0.0283,1.39719 l -0.311445,0.35994 -3.521395,0.0485 -3.521396,0.0485 -0.388919,0.43877 c -0.213902,0.24133 -0.388914,0.50436 -0.388914,0.58453 0,0.097 0.834794,0.13572 2.497806,0.11575 2.570314,-0.0309 2.83432,0.0194 2.738755,0.52157 -0.0463,0.24344 -0.318189,0.26504 -4.524876,0.35956 -4.952842,0.11128 -4.440134,0.0215 -6.525249,1.14331 -0.711695,0.38291 -1.3417,0.48851 -2.166642,0.36316 z m -54.522312,-2.29286 c 0.630157,-0.26542 0.767992,-0.58057 0.767992,-1.75595 0,-1.09687 0.154546,-1.53483 0.541597,-1.53483 0.387245,0 0.520492,0.2468 0.851482,1.57708 0.346465,1.3925 0.667385,1.77199 1.497768,1.77113 1.451191,-0.002 2.247721,-1.61058 1.738906,-3.51276 -0.419006,-1.56644 -0.419702,-1.64936 -0.01386,-1.64936 0.196,0 0.477714,0.13131 0.626034,0.29179 0.438818,0.4748 1.106589,1.8434 1.206381,2.47248 0.106472,0.67117 0.299966,0.73207 0.986116,0.31034 1.451542,-0.89217 1.790782,-3.48789 0.723205,-5.53369 -0.883672,-1.6934 -2.529974,-3.439597 -4.165013,-4.417777 -2.672701,-1.59895 -6.498744,-1.80277 -9.142913,-0.48705 -1.867811,0.92941 -3.8523168,3.532907 -4.0709328,5.340727 l -0.08436,0.69764 0.454789,-0.90694 c 0.6701308,-1.33638 2.3837158,-3.02146 3.7293188,-3.667287 1.742049,-0.8361 4.527657,-1.19793 5.811878,-0.75493 1.012316,0.3492 0.464101,0.995797 -0.898033,1.059187 -0.929161,0.0432 -2.229075,0.35148 -3.255793,0.77203 -1.707485,0.69938 -3.71997,2.48785 -4.355551,3.87071 -1.0310718,2.24336 -0.185485,4.49433 1.798488,4.78762 0.881061,0.13025 0.968224,-0.006 0.968224,-1.5128 0,-1.11568 0.0417,-1.36237 0.274086,-1.62127 l 0.274092,-0.30537 0.292344,0.34261 c 0.193181,0.22638 0.350949,0.71546 0.465101,1.44178 0.220463,1.4027 0.548628,2.15457 1.13485,2.60005 0.70695,0.53723 1.152956,0.6158 1.843791,0.32484 z m 56.358979,-0.28866 c 0.474732,-0.31356 0.798974,-1.12088 1.093657,-2.72307 0.262592,-1.42769 0.376174,-1.67436 0.770995,-1.67436 0.410739,0 0.541596,0.45362 0.541596,1.87748 0,1.26574 0.01737,1.34568 0.322756,1.48594 0.520414,0.23903 1.457924,-0.0901 2.053949,-0.72105 1.42528,-1.50881 0.81652,-4.13812 -1.433252,-6.19041 -1.485709,-1.3553 -3.51653,-2.20754 -5.837022,-2.44955 -0.681912,-0.0711 -1.298644,-0.188567 -1.37051,-0.261007 -0.1899,-0.19143 0.0064,-0.68989 0.309912,-0.787 0.530621,-0.16976 3.264353,-0.13293 4.016311,0.0541 1.054796,0.26238 2.67504,1.030017 3.492036,1.654467 0.782154,0.59782 1.788234,1.87356 2.283238,2.89523 l 0.338016,0.69764 -0.0808,-0.68331 c -0.108079,-0.91403 -0.888166,-2.49855 -1.669483,-3.39107 -0.894366,-1.021667 -2.484795,-2.053417 -3.821394,-2.479047 -2.057968,-0.65533 -4.702131,-0.43011 -6.92178,0.58959 -1.177575,0.54097 -3.022928,1.962727 -3.807247,2.933297 -1.239204,1.53348 -1.964658,3.59502 -1.77425,5.04192 0.115784,0.87985 0.702974,1.9476 1.289327,2.34452 0.759271,0.51397 0.939241,0.43673 1.127467,-0.48392 0.09021,-0.44126 0.257325,-0.99067 0.371352,-1.22089 0.540095,-1.09045 1.698936,-1.76864 1.698936,-0.99426 0,0.1822 -0.09893,0.60603 -0.219845,0.94184 -0.29156,0.80973 -0.303943,2.16767 -0.02464,2.7035 0.381904,0.73269 0.86758,1.08076 1.608091,1.15249 0.826747,0.0801 1.175645,-0.19705 1.397782,-1.11025 0.377389,-1.55141 0.575827,-2.05148 0.848725,-2.1388 0.508481,-0.16268 0.680856,0.16225 0.680856,1.28339 0,1.22557 0.243152,1.81626 0.798424,1.9396 0.20797,0.0462 0.440418,0.0996 0.516548,0.11865 0.249362,0.0624 1.036988,-0.16574 1.400256,-0.40568 z m -11.736488,-0.34394 c -0.177083,-0.22632 -0.446545,-0.46024 -0.598804,-0.51982 -0.152259,-0.0596 -7.782564,-0.0879 -16.956235,-0.0629 l -16.679391,0.0454 -0.380653,0.36097 c -0.209356,0.19853 -0.380648,0.41201 -0.380648,0.47439 0,0.0624 7.946479,0.11343 17.658848,0.11343 h 17.658853 z m -20.722975,-3.05716 c 1.248071,-0.40376 2.200125,-1.38623 2.563645,-2.64553 0.310194,-1.07457 0.195759,-1.34267 -0.786428,-1.84246 -2.657797,-1.35244 -3.104451,-3.240397 -0.984139,-4.159857 1.542565,-0.66892 3.314561,-0.67814 5.03626,-0.0262 0.979723,0.37099 1.352728,0.8144 1.352728,1.608057 0,0.91749 -0.673715,1.67068 -2.249296,2.51465 l -0.934324,0.50047 v 0.67301 c 0,0.37015 0.09602,0.90467 0.213389,1.18781 0.318644,0.76876 1.223096,1.678 2.039082,2.0499 0.708483,0.3229 0.822735,0.33068 5.497343,0.37464 2.625596,0.0247 4.727049,-0.002 4.669889,-0.0599 -0.05716,-0.0576 -0.95535,-0.45736 -1.995984,-0.88832 -1.04063,-0.43096 -1.917082,-0.85924 -1.947666,-0.95172 -0.03829,-0.11583 0.152625,-0.16784 0.613415,-0.16711 1.557591,0.003 3.601036,0.55282 5.108628,1.37593 l 0.751074,0.41007 v -1.16603 -1.16603 l -0.51907,-0.15351 c -0.548146,-0.16212 -3.228669,-0.50081 -5.082146,-0.64216 -0.994471,-0.0758 -1.07635,-0.10345 -0.834788,-0.28151 0.562674,-0.41474 1.392027,-0.54052 3.529222,-0.53524 1.183408,0.003 2.378625,0.0762 2.665403,0.16341 l 0.519922,0.1581 0.480377,-1.04807 c 0.684444,-1.49329 1.495047,-2.566067 3.145079,-4.162307 1.657896,-1.60385 1.89183,-2.07992 2.01385,-4.09831 0.159505,-2.63834 -0.928187,-4.854274 -3.155924,-6.429503 -0.9374,-0.662833 -0.943375,-0.60592 -0.05246,0.499769 1.815093,2.252648 2.090503,5.170094 0.750268,7.947564 -0.758283,1.57145 -2.570085,2.91118 -4.413548,3.2636 -2.887933,0.55209 -5.458462,-0.41361 -6.961074,-2.61513 -0.229289,-0.33594 -0.443678,-0.58379 -0.476422,-0.55078 -0.03275,0.033 0.126598,0.5689 0.354097,1.19088 0.667468,1.8248 0.498494,1.69336 -1.967367,-1.53041 -1.8262,-2.3875 -4.015605,-3.39951 -6.566704,-3.035326 -1.948921,0.278219 -3.28857,1.189966 -5.088957,3.463476 -1.315208,1.66083 -2.009273,2.40196 -2.009273,2.14552 0,-0.0804 0.117914,-0.42095 0.262028,-0.75685 0.544563,-1.26927 0.494811,-1.31861 -0.37957,-0.37639 -1.370992,1.47737 -3.048819,2.20743 -5.073142,2.20743 -1.805661,0 -3.308288,-0.56639 -4.593995,-1.73165 -1.442266,-1.30714 -2.119287,-2.88811 -2.119287,-4.948936 0,-2.084501 0.575189,-3.645976 1.848109,-5.017101 l 0.712627,-0.767598 -0.612631,0.337473 c -1.043036,0.574569 -2.397935,2.039163 -2.964889,3.204929 -0.721787,1.484143 -0.895898,2.763493 -0.585934,4.305493 0.228441,1.13647 0.795312,2.52443 1.03103,2.52443 0.06366,0 0.651574,0.50536 1.306481,1.12302 1.222467,1.15294 2.082205,2.320597 2.8584,3.882147 l 0.441899,0.88903 0.577799,-0.0918 c 2.151989,-0.34168 5.14572,-0.20274 5.864797,0.27221 0.489982,0.32362 0.208127,0.47842 -0.876118,0.48114 -0.867784,0.002 -4.982809,0.51204 -5.19386,0.64353 -0.125108,0.0779 -0.166578,2.28875 -0.04295,2.28875 0.0406,0 0.398754,-0.16602 0.795907,-0.36893 1.705623,-0.87144 4.545635,-1.509 5.417232,-1.21614 0.36385,0.12226 0.247694,0.19068 -1.597711,0.94108 -1.094546,0.44509 -2.05237,0.87117 -2.128499,0.94685 -0.203644,0.20243 9.128328,0.0653 9.774164,-0.14364 z m -4.22755,-2.05285 c -0.25507,-0.25712 -0.268897,-0.39995 -0.07422,-0.76662 0.277554,-0.52279 1.102476,-0.25492 1.102476,0.358 0,0.58758 -0.610172,0.83006 -1.028251,0.40862 z m 14.257077,0 c -0.255064,-0.25712 -0.268896,-0.39995 -0.07422,-0.76662 0.27756,-0.52279 1.102477,-0.25492 1.102477,0.358 0,0.58758 -0.610167,0.83006 -1.028252,0.40862 z m -6.322552,1.68842 c -0.182278,-0.26979 -0.362557,-0.48988 -0.400622,-0.48907 -0.03809,0.001 -0.210544,0.20443 -0.38329,0.45252 l -0.314087,0.45106 0.660128,0.0715 c 0.363075,0.0393 0.68469,0.0564 0.714704,0.038 0.03003,-0.0184 -0.09456,-0.25423 -0.276833,-0.52403 z m -8.9719,-11.644157 c 0.318041,-0.32059 0.404608,-0.53255 0.404608,-0.99066 0,-0.48091 -0.08538,-0.66888 -0.488329,-1.075063 -0.44147,-0.445012 -0.543119,-0.484849 -1.059259,-0.415063 -0.831043,0.112364 -1.289986,0.624035 -1.289986,1.438196 0,0.54222 0.06676,0.69629 0.452043,1.04331 0.63126,0.56856 1.416464,0.56828 1.980923,-5.3e-4 z m 26.515774,0.20412 c 0.748562,-0.52852 0.757487,-1.75596 0.01732,-2.383768 -0.363007,-0.307904 -0.532436,-0.359132 -0.985337,-0.297895 -0.805695,0.108937 -1.266015,0.63068 -1.266015,1.434953 0,0.54222 0.06676,0.69629 0.452043,1.04331 0.511829,0.46099 1.291163,0.54995 1.781982,0.2034 z M 30.865789,40.453447 c 1.117303,-0.312841 1.71211,-1.503677 1.297582,-2.597822 -0.594173,-1.568326 -2.656431,-1.7413 -3.530535,-0.296134 -0.753474,1.24573 0.09398,2.852294 1.592553,3.019103 0.07613,0.0085 0.36431,-0.04783 0.6404,-0.125147 z m 27.316417,-0.274196 c 0.586253,-0.365233 0.978305,-1.300084 0.845194,-2.015353 -0.26297,-1.413007 -2.052846,-2.076558 -3.183359,-1.180146 -1.155666,0.916351 -0.978913,2.61004 0.345011,3.305949 0.707656,0.371974 1.268709,0.34088 1.993154,-0.11045 z M 55.9833,31.373973 c 2.195531,-1.071189 4.7464,-1.085169 7.85071,-0.04303 0.595487,0.199912 1.109707,0.33625 1.142713,0.302979 0.109234,-0.110113 -1.518632,-1.363737 -2.22305,-1.711984 -1.726407,-0.853484 -3.433479,-0.960401 -5.020016,-0.314422 -0.474517,0.193203 -0.862756,0.293702 -0.862756,0.223331 0,-0.07037 0.14765,-0.424108 0.328118,-0.786082 0.180467,-0.361969 0.371529,-0.799404 0.424582,-0.972072 0.08793,-0.286166 0.05158,-0.313948 -0.411012,-0.313948 -0.698967,0 -1.370787,0.351844 -1.930558,1.01107 -0.564908,0.665275 -0.866042,1.495118 -0.991897,2.733427 l -0.09304,0.915412 0.471786,-0.316779 c 0.259485,-0.174235 0.850975,-0.501788 1.314418,-0.727899 z m -20.078871,0.06544 c -0.272438,-2.198046 -1.45581,-3.680666 -2.937774,-3.680666 -0.327678,0 -0.595785,0.03739 -0.595785,0.08311 0,0.04572 0.125893,0.261323 0.279753,0.479138 0.153865,0.217816 0.371649,0.658599 0.483976,0.979513 0.190491,0.544251 0.187964,0.578155 -0.03751,0.504198 -1.270698,-0.416767 -2.279001,-0.650651 -2.805008,-0.650651 -0.830263,0 -2.103969,0.341813 -2.898929,0.777961 -0.649241,0.3562 -2.256547,1.603743 -2.173758,1.687203 0.02501,0.02521 0.500869,-0.110371 1.057527,-0.301222 3.267461,-1.120266 6.111428,-1.006013 8.506062,0.341718 0.538531,0.30309 1.033038,0.553986 1.098903,0.557541 0.06587,0.0037 0.07602,-0.34647 0.02255,-0.777845 z m 38.749967,-2.628198 c -1.679507,-3.828178 -3.5695,-6.69256 -5.904619,-8.948742 -1.153307,-1.114322 -2.535766,-2.061181 -3.267446,-2.237899 -0.287997,-0.06955 0.0984,0.393653 1.657456,1.986944 2.977617,3.043008 5.367009,6.022871 7.057298,8.801319 0.388071,0.637894 0.724884,1.159812 0.748473,1.159812 0.02359,0 -0.107435,-0.342647 -0.291162,-0.761434 z M 16.625339,27.340151 c 1.440502,-2.189967 3.633909,-4.910058 6.091876,-7.554662 1.130994,-1.216862 2.0196,-2.21248 1.974692,-2.21248 -0.276472,0 -1.667485,0.847599 -2.466186,1.502749 -2.190567,1.796846 -4.235989,4.621966 -6.19397,8.555063 -1.059426,2.128113 -0.967957,2.083324 0.593588,-0.29067 z m -1.32488,-1.717221 c 0.694551,-1.157776 1.673281,-2.323105 4.091753,-4.871856 1.238189,-1.304888 2.272012,-2.428191 2.29739,-2.496231 0.02537,-0.06804 -0.62865,-0.128945 -1.453388,-0.135342 l -1.499531,-0.01165 0.752951,-0.358436 c 0.41412,-0.197143 1.255013,-0.497564 1.868643,-0.667606 l 1.115697,-0.30917 -0.484468,-0.136786 c -0.266454,-0.07523 -1.09193,-0.284284 -1.834392,-0.464557 -0.742462,-0.180278 -1.303054,-0.373086 -1.245764,-0.428469 0.189655,-0.183321 1.728715,-0.402107 2.932558,-0.416878 l 1.185737,-0.01456 -2.32891,-0.765642 c -1.280899,-0.421102 -2.297934,-0.796862 -2.260073,-0.835027 0.03788,-0.03818 0.857394,-0.07079 1.821182,-0.0725 l 1.752341,-0.0032 -0.434826,-0.266559 c -0.968418,-0.593665 -3.062546,-1.376736 -4.429979,-1.656534 -1.63023,-0.333569 -1.869898,-0.498685 -1.488016,-1.02514 0.297163,-0.409662 2.76782,-0.477357 4.253869,-0.116554 1.089199,0.26445 3.083682,1.017678 5.027419,1.898631 1.023537,0.463897 0.899178,0.260447 -0.367454,-0.601133 -2.136389,-1.453208 -4.733332,-2.524535 -6.833267,-2.818957 -1.743001,-0.244377 -2.232936,0.07163 -3.017177,1.946079 -0.826162,1.97466 -1.107703,3.808005 -1.106568,7.205905 5.23e-4,1.717511 0.07231,3.334359 0.173332,3.906861 0.276158,1.564899 0.903463,4.256042 0.991076,4.251728 0.04421,-0.0021 0.278146,-0.333629 0.519865,-0.736553 z M 76.020873,23.851887 C 77.073372,19.075489 76.750026,13.458037 75.245828,10.387182 74.61641,9.102213 73.956004,8.81019 72.260092,9.066926 c -1.419928,0.214955 -3.307723,0.837157 -4.659405,1.535699 -1.091077,0.563863 -3.308304,2.079792 -3.20066,2.188307 0.0305,0.0308 0.496595,-0.16797 1.035712,-0.441648 2.647093,-1.343766 4.715707,-1.930768 6.868789,-1.949122 1.88065,-0.01603 2.283903,0.07982 2.283903,0.542892 0,0.416839 -0.262462,0.564229 -1.224858,0.687844 -1.023051,0.131406 -2.820702,0.721207 -3.896618,1.278458 -1.324028,0.685757 -1.436475,0.796508 -0.703524,0.692919 0.718475,-0.101549 2.985266,0.05936 2.822402,0.200354 -0.0615,0.05324 -0.637977,0.238304 -1.281066,0.411251 -0.643089,0.172953 -1.608556,0.493952 -2.145481,0.713328 l -0.976229,0.398869 1.116529,0.0072 c 1.128441,0.0073 2.674328,0.226954 2.860221,0.406404 0.05558,0.05365 -0.598453,0.278035 -1.453388,0.498635 -0.854941,0.220605 -1.605146,0.42898 -1.667129,0.463058 -0.06198,0.03407 0.516548,0.274771 1.285623,0.53487 0.76907,0.260104 1.567237,0.565335 1.773706,0.6783 0.350524,0.191785 0.276801,0.205766 -1.112595,0.210981 -0.818398,0.0032 -1.487995,0.04461 -1.487995,0.09233 0,0.04773 0.92293,1.068025 2.050963,2.267373 2.364714,2.514219 3.343658,3.6632 4.184385,4.911165 l 0.599217,0.889482 0.167352,-0.414705 c 0.09204,-0.228083 0.326459,-1.136771 0.520927,-2.019303 z m -30.775008,0.453477 c 10e-4,-0.05756 0.127509,-0.795327 0.280778,-1.639489 0.545651,-3.005254 0.601309,-5.630235 0.191464,-9.030245 l -0.09619,-0.797942 0.745245,0.08267 c 2.420635,0.268537 5.007915,0.727229 5.201248,0.922109 0.474716,0.478537 0.58992,2.579312 0.242639,4.424728 -0.118364,0.628987 -0.193923,1.207981 -0.167907,1.286652 0.026,0.07868 0.252088,-0.280344 0.502386,-0.797816 0.492326,-1.017841 0.901533,-2.45939 1.05917,-3.731228 0.08658,-0.698488 0.137622,-0.800532 0.40046,-0.800532 0.424943,0 3.283077,0.839266 5.406005,1.587426 0.986823,0.347773 1.811331,0.615076 1.832237,0.594002 0.115099,-0.116024 -3.19185,-2.150936 -4.539346,-2.793266 -3.827923,-1.824706 -7.219644,-2.599779 -11.354894,-2.594811 -5.284968,0.0064 -9.854861,1.384921 -13.999125,4.223029 -1.160176,0.794526 -1.570272,1.145415 -1.181693,1.011086 0.816128,-0.282132 6.815862,-2.150141 6.831593,-2.127006 0.01114,0.01635 0.285993,0.85638 0.6108,1.86668 0.324806,1.0103 0.763106,2.14145 0.973995,2.513671 0.402238,0.709947 1.651795,2.19311 1.757723,2.086325 0.0339,-0.03417 -0.102094,-0.584647 -0.302227,-1.223264 -0.559718,-1.786062 -0.653755,-4.948712 -0.167085,-5.619614 0.179573,-0.247553 2.423889,-0.686707 4.222973,-0.826325 l 1.01308,-0.07862 -0.113363,1.632173 c -0.20933,3.01374 -0.140085,6.920769 0.150711,8.504056 0.144469,0.786605 0.315447,1.43019 0.379947,1.43019 0.0645,0 0.118222,-0.04709 0.119373,-0.104644 z M 14.072608,7.91571 c 1.269651,-1.346609 3.37626,-1.258916 7.017181,0.292106 1.843442,0.785301 1.709708,0.576301 -0.326193,-0.509781 -2.741303,-1.462386 -5.611708,-2.087041 -6.624459,-1.441607 -0.555915,0.354293 -1.046023,1.31433 -1.415339,2.772414 -0.156826,0.619175 -0.284806,1.178102 -0.284387,1.242057 4.18e-4,0.06396 0.258156,-0.323238 0.572756,-0.860431 0.314604,-0.537193 0.7918,-1.209834 1.060441,-1.494758 z M 77.53896,9.236055 C 77.232186,7.831357 76.633503,6.611857 76.085257,6.274916 74.957104,5.581574 72.499503,6.115751 69.266607,7.756998 c -1.332257,0.676349 -2.4578,1.346923 -1.875925,1.117634 0.114194,-0.045 0.892796,-0.363855 1.730226,-0.70857 2.692111,-1.108165 4.567,-1.428625 5.848344,-0.999612 0.829311,0.277667 1.75969,1.202503 2.309019,2.295255 0.198009,0.3939 0.383949,0.716181 0.413199,0.716181 0.02924,0 -0.03939,-0.423824 -0.15251,-0.941831 z M 3.1902963,50.267291 c -0.2464794,-0.0994 -0.4666023,-0.71944 -0.3673388,-1.034697 0.09444,-0.29995 1.8626689,-1.40478 3.5698817,-2.23054 1.155022,-0.55868 1.211507,-0.57148 1.546044,-0.35052 0.415004,0.2741 0.469359,0.91011 0.104992,1.2285 -0.133227,0.11641 -1.087331,0.72264 -2.120234,1.34717 -1.7406158,1.052427 -2.2356408,1.240797 -2.7333449,1.040087 z M 84.198068,49.188954 c -2.032055,-1.23746 -2.502341,-1.66791 -2.350212,-2.15108 0.09458,-0.30037 0.534486,-0.51994 0.927491,-0.46292 0.371038,0.0538 4.014433,2.04926 4.367992,2.39228 0.349405,0.338997 0.32885,0.698147 -0.06589,1.151287 -0.386037,0.44314 -0.895093,0.2788 -2.879385,-0.929567 z M 2.6843214,45.344224 c -0.3091901,-0.3444 -0.3168282,-0.91212 -0.016741,-1.24636 0.181514,-0.20218 0.598411,-0.29025 1.989764,-0.42032 0.9680728,-0.0905 1.9314578,-0.19153 2.1408458,-0.22449 0.56552,-0.089 1.051997,0.15029 1.156194,0.56877 0.158982,0.63852 -0.224318,0.83257 -2.436622,1.23354 -2.4049766,0.4359 -2.5186582,0.43946 -2.8334199,0.0889 z m 81.9462606,-0.078 c -2.223264,-0.40422 -2.429152,-0.49169 -2.429152,-1.03196 0,-0.5655 0.439205,-0.84873 1.311169,-0.84553 1.113714,0.004 3.552999,0.39685 3.903827,0.62856 0.403028,0.2662 0.441287,1.03047 0.0686,1.37046 -0.320887,0.29273 -0.653949,0.27855 -2.854444,-0.12153 z M 1.0322701,41.499544 C 0.63086872,41.2991 0.44482942,40.696053 0.64664712,40.249554 c 0.2748711,-0.60812 0.69901928,-0.678043 3.07165928,-0.506371 3.2710448,0.236668 4.4293838,0.570234 4.4293838,1.275509 0,0.570297 -0.310137,0.62335 -3.6442788,0.62335 -1.8895015,0 -3.3018953,-0.05798 -3.4711413,-0.142498 z m 81.1602509,-0.08359 c -0.224638,-0.423106 -0.04154,-0.947512 0.388416,-1.112286 0.731356,-0.280292 3.041861,-0.543666 4.776571,-0.544472 1.580903,-5.28e-4 1.79368,0.02827 2.041666,0.27824 0.341333,0.34407 0.355479,0.850557 0.03458,1.239158 -0.231224,0.280034 -0.397807,0.296419 -3.665227,0.360498 -3.351882,0.06574 -3.42617,0.06115 -3.576033,-0.221138 z M 4.3079654,34.827541 C 2.7670898,34.040799 1.4143044,33.274366 1.3017684,33.124359 0.72189252,32.35135 1.5702988,31.212411 2.4725428,31.552658 c 0.6403527,0.241489 5.0970814,2.929162 5.4049534,3.259511 0.561597,0.602598 0.273731,1.467985 -0.482956,1.451874 -0.156743,-0.0032 -1.545699,-0.649766 -3.0865748,-1.436502 z m 77.9718286,1.257273 c -0.297367,-0.219181 -0.329625,-0.834019 -0.06106,-1.163804 0.556302,-0.683131 5.164459,-3.407398 5.794218,-3.425449 0.760055,-0.02178 1.254641,0.735477 0.955627,1.463165 -0.140447,0.341782 -0.618705,0.630348 -3.079424,1.858004 -1.602231,0.799362 -3.013239,1.453383 -3.135563,1.453383 -0.122324,0 -0.335536,-0.08339 -0.473795,-0.185299 z M 8.8591922,33.095792 c -0.528058,-0.447565 -4.0354738,-4.843873 -4.1196078,-5.163654 -0.100472,-0.381872 0.256817,-0.979164 0.6824138,-1.140816 0.193892,-0.07365 0.435878,-0.04699 0.670549,0.07383 0.414392,0.21337 3.9346888,5.006031 4.0668218,5.536724 0.06623,0.265979 10e-4,0.410096 -0.2896918,0.640637 -0.45548,0.361162 -0.636,0.370676 -1.010485,0.05328 z m 71.4043818,-0.03491 c -0.152259,-0.153483 -0.276833,-0.39734 -0.276833,-0.541899 0,-0.54972 3.64487,-5.568751 4.133937,-5.692485 0.77946,-0.197201 1.512568,0.483462 1.255316,1.165512 -0.140749,0.373187 -3.29173,4.374355 -3.909393,4.964222 -0.476438,0.454996 -0.825361,0.485345 -1.203027,0.10465 z"
       id="path2" />
  </g>
</svg>
